<?xml version="1.0" encoding="UTF-8" standalone="no"?>
<svg
   xmlns:dc="http://purl.org/dc/elements/1.1/"
   xmlns:cc="http://creativecommons.org/ns#"
   xmlns:rdf="http://www.w3.org/1999/02/22-rdf-syntax-ns#"
   xmlns:svg="http://www.w3.org/2000/svg"
   xmlns="http://www.w3.org/2000/svg"
   viewBox="0 0 30 9"
   height="9"
   width="30"
   id="svg10"
   version="1.1">
  <metadata
     id="metadata16">
    <rdf:RDF>
      <cc:Work
         rdf:about="">
        <dc:format>image/svg+xml</dc:format>
        <dc:type
           rdf:resource="http://purl.org/dc/dcmitype/StillImage" />
        <dc:title></dc:title>
      </cc:Work>
    </rdf:RDF>
  </metadata>
  <defs
     id="defs14" />
  <path
     id="path20"
     d="m 7.2802676,9.2795313 c 0,0 -0.014822,0 -0.032934,0 -0.032528,0 -0.029086,0 0.017735,0 0.013125,0 0.015199,0 0.015199,-0.22 0,-0.2 -0.00135,-0.23 -0.019539,-0.25 -0.010753,0 -0.026415,0 -0.034824,0 -0.00839,0 -0.018217,0 -0.021824,0 -0.00357,0 -0.00981,0 -0.01382,0 -0.00646,0 -0.037871,0 -0.1017385,-0.13 -0.011428,0 -0.039086,0 -0.061479,-0.1 -0.022393,0 -0.040697,-0.1 -0.040697,-0.1 -5.8e-6,0 -0.025093,0 -0.055751,-0.1 -0.030658,0 -0.055742,-0.1 -0.055742,-0.1 0,0 -0.020532,0 -0.045605,0 -0.025093,0 -0.045605,-0.1 -0.045605,-0.1 0,0 -0.00685,0 -0.015199,0 -0.00839,0 -0.015199,0 -0.015199,0 0,0 -0.012527,0 -0.02787,0 -0.015334,0 -0.033657,0 -0.040736,0 -0.00704,0 -0.028738,0 -0.048142,-0.1 -0.019404,0 -0.035277,0 -0.035277,0 0,0 -0.082657,-0.1 -0.1414816,-0.14 -0.030802,0 -0.032934,0 -0.142608,-0.17 -0.076475,-0.1 -0.1719859,-0.23 -0.1719859,-0.24 0,0 -0.035605,0 -0.057834,-0.1 -0.012932,0 -0.031121,0 -0.040408,-0.1 -0.00926,0 -0.032288,0 -0.051131,-0.1 -0.018835,0 -0.040871,-0.1 -0.048962,-0.1 -0.0081,0 -0.023174,0 -0.033531,0 -0.038653,0 -0.093931,-0.1 -0.1093031,-0.11 -0.00868,0 -0.042732,-0.1 -0.07554,-0.1 -0.032808,0 -0.059647,-0.1 -0.059647,-0.1 0,0 -0.013067,0 -0.029019,0 -0.015951,0 -0.036984,0 -0.046715,0 -0.00973,0 -0.028594,0 -0.041932,0 -0.013338,0 -0.024226,0 -0.024226,0 0,0 -0.025093,0 -0.055741,-0.1 -0.030658,0 -0.055741,-0.1 -0.055741,-0.1 0,0 -0.042057,-0.1 -0.058191,-0.1 -0.016626,0 -0.053292,-0.1 -0.053292,-0.1 0,0 -0.011698,0 -0.02598,0 -0.048778,-0.1 -0.055105,-0.1 -0.055105,-0.1 0,0 -0.013067,0 -0.029028,0 -0.01598,0 -0.035345,0 -0.043069,-0.1 -0.00772,0 -0.038508,-0.1 -0.068413,-0.1 -0.029905,0 -0.060303,-0.1 -0.067565,-0.1 -0.00723,0 -0.031237,0 -0.053292,-0.1 -0.022046,0 -0.048412,0 -0.058596,-0.1 -0.010184,0 -0.021265,0 -0.024601,0 -0.00337,0 -0.021149,0 -0.03953,0 -0.018381,0 -0.04171,0 -0.051835,0 -0.010136,0 -0.031824,0 -0.048238,-0.1 -0.016414,0 -0.049396,-0.1 -0.073313,-0.1 -0.023907,0 -0.050032,-0.1 -0.058036,-0.1 -0.023686,0 -0.1003641,-0.1 -0.1256811,-0.14 -0.012903,0 -0.034438,-0.1 -0.047872,-0.1 -0.013424,0 -0.03114,0 -0.039366,0 -0.0082,0 -0.038942,-0.1 -0.068259,-0.1 -0.029317,0 -0.070458,-0.1 -0.091414,-0.13 -0.020965,0 -0.051209,-0.1 -0.067217,-0.1 -0.016009,0 -0.029115,0 -0.029115,-0.1 0,0 -0.00367,0 -0.0082,0 -0.00772,0 -0.028555,0 -0.051605,-0.1 -0.0056,0 -0.028604,0 -0.051064,-0.1 -0.022471,0 -0.055742,-0.1 -0.073949,-0.1 -0.032191,0 -0.090324,-0.1 -0.1155686,-0.12 -0.00685,0 -0.015468,0 -0.019075,0 -0.00367,0 -0.025576,0 -0.04874,0 -0.023175,0 -0.046724,-0.1 -0.052337,-0.1 -0.0056,0 -0.040234,0 -0.076929,-0.1 -0.036704,0 -0.081943,-0.1 -0.1005455,-0.11 -0.018593,0 -0.045712,-0.1 -0.060255,-0.1 -0.014552,0 -0.043658,0 -0.06471,-0.1 -0.021043,0 -0.049212,-0.1 -0.062608,-0.1 -0.013395,0 -0.024553,0 -0.024794,0 -2.421e-4,0 -0.018671,0 -0.040957,-0.1 -0.022287,0 -0.040523,0 -0.040543,0 -3.18e-5,0 -0.036492,-0.1 -0.052887,-0.1 -0.00636,0 -0.027456,0 -0.04683,0 -0.019375,0 -0.051961,-0.1 -0.072425,-0.1 -0.098623,-0.12 -0.1355631,-0.16 -0.1509874,-0.17 -0.029896,0 -0.058837,-0.1 -0.082416,-0.1 -0.012691,0 -0.045211,-0.1 -0.072281,-0.1 -0.02707,0 -0.049222,-0.1 -0.049222,-0.1 0,0 -0.025093,0 -0.055742,-0.1 -0.030658,0 -0.055741,-0.1 -0.055741,-0.1 0,0 -0.00367,0 -0.0081,0 -0.00443,0 -0.013578,0 -0.020262,0 -0.00665,0 -0.024708,0 -0.040041,0 -0.015334,0 -0.042847,0 -0.061132,-0.1 -0.068017,-0.1 -0.1058756,-0.13 -0.1247254,-0.13 -0.010676,0 -0.019375,0 -0.019375,0 0,0 -0.030108,-0.1 -0.040678,-0.1 -0.00376,0 -0.033185,0 -0.065452,-0.1 -0.2282422,-0.29 -0.3079975,-0.38 -0.3263786,-0.4 -0.00975,0 -0.04333,0 -0.044516,-0.1 -2.692e-4,0 -0.016443,0 -0.035702,0 -0.03735,0 -0.039568,0 -0.1269966,-0.12 -0.031323,0 -0.06553,-0.1 -0.076013,-0.1 -0.010483,0 -0.028073,0 -0.039086,0 -0.011023,0 -0.034862,0 -0.052993,-0.1 -0.01814,0 -0.040784,0 -0.050331,-0.1 -0.00955,0 -0.021043,0 -0.025546,0 -0.00453,0 -0.0082,0 -0.0082,0 0,0 -0.011052,0 -0.024572,0 -0.01353,0 -0.042086,0 -0.063495,-0.1 -0.0214,0 -0.065067,-0.1 -0.097039,-0.1 -0.031969,0 -0.058123,-0.1 -0.058123,-0.1 0,0 -0.00473,0 -0.010454,0 -0.00579,0 -0.013501,0 -0.017224,0 -0.00376,0 -0.010541,0 -0.01517,0 -0.038199,0 -0.098562,-0.1 -0.09878,-0.1 -1.514e-4,0 -0.00646,0 -0.013906,0 -0.00752,0 -0.031053,0 -0.052318,0 -0.021265,0 -0.048422,0 -0.060351,-0.10000004 -0.01191,0 -0.027533,0 -0.034689,0 -0.00714,0 -0.0279,0 -0.046098,0 -0.018188,0 -0.041256,0 -0.051247,-0.1 -0.01001,0 -0.030069,0 -0.044612,-0.1 -0.014553,0 -0.034727,0 -0.044863,-0.1 h -0.0184261 -0.2257492 -0.2257502 -0.0102128 l -0.010213,0.1 h -0.00164 c -8.065e-4,0 -0.00608,-0.1 -0.011669,-0.1 -0.00656,0 -0.010136,-0.13 -0.010136,-0.37 v -0.36 H 7.6957324 15.195732 l -0.0027,0.36 c -0.0014,0.2 -0.0058,0.37 -0.0099,0.37 -0.004,0 -0.0087,0 -0.01024,0 h -0.0029 l -0.0087,-0.1 h -0.0087 -0.227657 -0.227659 -0.01693 c -0.0093,0 -0.02997,0 -0.04593,0.1 -0.05219,0.1 -0.06347,0.1 -0.09478,0.11 -0.01701,0 -0.04173,0 -0.05493,0 -0.0132,0 -0.03768,0 -0.05439,0.1 -0.01673,0 -0.03914,0 -0.04979,0 -0.01068,0 -0.02433,0 -0.0304,0 -0.0061,0 -0.01787,0 -0.02622,0 -0.01397,0 -0.06869,0.10000004 -0.08882,0.10000004 -0.0047,0 -0.01134,0 -0.01485,0 -0.0035,0 -0.01011,0 -0.01468,0 -0.0046,0 -0.01747,0 -0.02861,0 -0.01116,0 -0.04079,0.1 -0.06588,0.1 -0.02508,0 -0.06158,0.1 -0.08108,0.1 -0.01952,0 -0.04574,0 -0.05827,0.1 -0.01253,0 -0.02298,0 -0.02318,0 -2.14e-4,0 -0.0058,0 -0.01267,0 -0.0068,0 -0.02139,0 -0.03255,0 -0.01116,0 -0.03202,0 -0.04638,0 -0.01437,0 -0.03486,0 -0.04557,0.1 -0.01069,0 -0.0286,0 -0.03977,0.1 -0.01119,0 -0.04616,0 -0.07775,0.1 -0.05963,0.1 -0.07329,0.1 -0.126194,0.12 -0.01737,0 -0.03676,0 -0.04307,0 -0.02143,0 -0.02403,0 -0.04057,0.1 -0.0091,0 -0.02646,0 -0.03864,0 -0.02673,0 -0.213745,0.26 -0.287284,0.36 -0.02908,0 -0.05802,0.1 -0.0643,0.1 -0.01062,0 -0.02498,0 -0.04199,0.1 -0.0039,0 -0.01682,0 -0.02878,0 -0.01197,0 -0.03315,0 -0.04707,0 -0.06498,0.1 -0.09963,0.12 -0.124979,0.14 -0.01512,0 -0.03285,0 -0.03937,0 -0.0065,0 -0.01442,0 -0.01753,0 -0.0032,0 -0.01018,0 -0.01577,0 -0.0056,0 -0.03066,0 -0.05574,0.1 -0.02508,0 -0.05244,0 -0.06081,0.1 -0.0084,0 -0.03573,0 -0.06081,0.1 -0.02508,0 -0.05473,0.1 -0.06588,0.1 -0.01115,0 -0.03239,0 -0.04721,0.1 -0.04114,0 -0.08691,0.1 -0.178305,0.21 -0.02092,0 -0.05505,0.1 -0.07589,0.1 -0.02082,0 -0.04268,0.1 -0.04853,0.1 -0.03382,0.1 -0.04237,0.1 -0.05823,0.1 -0.0096,0 -0.02665,0 -0.03782,0 -0.01118,0 -0.02484,0 -0.03041,0 -0.0056,0 -0.01696,0 -0.0253,0 -0.0084,0 -0.03572,0 -0.0608,0.1 -0.02508,0 -0.05929,0.1 -0.07601,0.1 -0.01673,0 -0.04865,0.1 -0.07094,0.1 -0.02228,0 -0.06418,0.1 -0.09307,0.1 -0.02889,0 -0.05854,0.1 -0.06588,0.1 -0.0074,0 -0.02951,0 -0.04927,0.1 -0.01975,0 -0.04177,0 -0.04893,0.1 -0.0071,0 -0.02062,0 -0.02996,0 -0.02321,0 -0.0727,0.1 -0.108697,0.1 -0.01643,0 -0.04873,0.1 -0.07178,0.1 -0.02304,0 -0.04615,0.1 -0.05133,0.1 -0.02426,0 -0.03558,0.1 -0.04184,0.1 -0.0038,0 -0.01138,0 -0.01696,0 -0.0056,0 -0.01968,0 -0.03133,0.1 -0.08395,0.11 -0.132047,0.18 -0.170077,0.23 -0.02414,0 -0.04972,0.1 -0.05683,0.1 -0.0071,0 -0.02282,0 -0.03492,0 -0.0121,0 -0.03318,0 -0.04685,0.1 -0.02274,0 -0.0861,0.1 -0.13634,0.15 -0.01116,0 -0.03965,0.1 -0.06334,0.1 -0.0793,0.1 -0.08856,0.1 -0.114018,0.11 -0.01393,0 -0.03662,0 -0.05042,0 -0.0138,0 -0.02747,0 -0.03041,0 -0.0029,0 -0.02129,0 -0.04079,0.1 -0.01951,0 -0.04719,0 -0.0615,0.1 -0.01431,0 -0.03536,0 -0.04676,0.1 -0.02722,0 -0.107606,0.15 -0.151175,0.21 -0.01901,0 -0.03615,0.1 -0.03807,0.1 -0.0051,0 -0.02739,0 -0.03578,0.1 -0.004,0 -0.01628,0 -0.02723,0 -0.01096,0 -0.0249,0 -0.03098,0 -0.01204,0 -0.04494,0.1 -0.05448,0.1 -0.0064,0 -0.039729,0 -0.05698,0.1 -0.0059,0 -0.0323,0.1 -0.05866,0.1 -0.02636,0 -0.05102,0.1 -0.05482,0.1 -0.0038,0 -0.01601,0 -0.02715,0 -0.01116,0 -0.0294,0 -0.04054,0 -0.01115,0 -0.02939,0 -0.04054,0.1 -0.01116,0 -0.02939,0 -0.04054,0 -0.01116,0 -0.04082,0 -0.06592,0.1 -0.02511,0 -0.05932,0.1 -0.07601,0.1 -0.03604,0 -0.06708,0.1 -0.09274,0.1 -0.0215,0 -0.100479,0.11 -0.115383,0.13 -0.0055,0 -0.01567,0 -0.02255,0 -0.0068,0 -0.02188,0 -0.03332,0 -0.01142,0 -0.02768,0 -0.03608,0 -0.0084,0 -0.02905,0 -0.04587,0.1 -0.09167,0.14 -0.231762,0.32 -0.314376,0.39 -0.06973,0.1 -0.110944,0.11 -0.133144,0.14 -0.03453,0 -0.05407,0 -0.06676,0.1 -0.01989,0 -0.06499,0.1 -0.06863,0.1 -0.0018,0 -0.0081,0 -0.013668,0 -0.00562,0 -0.016972,0 -0.025325,0 -0.00839,0 -0.028886,0 -0.045608,0.1 -0.016729,0 -0.041803,0 -0.055745,0.1 -0.0249,0 -0.061441,0.1 -0.1114854,0.13 -0.013935,0 -0.034457,0.1 -0.045605,0.1 -0.011158,0 -0.027552,0 -0.036454,0 -0.067179,0.1 -0.095011,0.13 -0.1007799,0.13 -0.00367,0 -0.010772,0 -0.015825,0 -0.00501,0 -0.018757,0 -0.030532,0 -0.043609,0 -0.044911,0 -0.042096,0.27 l 0.0027,0.22 h 0.022094 c 0.036087,0 0.039357,0 0.00569,0 -0.017195,0 -0.03277,0 -0.034631,0 -0.00443,0 -0.8293829,0 -0.8293829,0 z"
     style="fill:#d8d8d8;stroke-width:0.00805335" />
</svg>
